<svg xmlns="http://www.w3.org/2000/svg" viewBox="0 0 40 40"><path d="M24.042,3.99a20,20,0,1,1-20,20,19.99935,19.99935,0,0,1,20-20Z" transform="translate(-4.042 -3.98999)" style="fill:#f06292;fill-rule:evenodd"/><path d="M36.561,12.574c-.904-3.545-6.781-4.71-12.343-2.734a27.957,27.957,0,0,0-9.471,5.432c-3.064,2.866-3.552,5.36-3.351,6.402.71,3.677,5.749,6.081,7.82,7.865v.011c-.611.301-5.081,2.563-6.127,4.876-1.104,2.44.176,4.191,1.023,4.427a6.27989,6.27989,0,0,0,6.766-2.742,6.877,6.877,0,0,0,.674-6.113,8.03359,8.03359,0,0,1,3.054-.175c3.501.409,4.188,2.595,4.056,3.51a2.31058,2.31058,0,0,1-1.111,1.57c-.246.152-.32.205-.3.317.03.164.143.158.353.123a2.73149,2.73149,0,0,0,1.905-2.433c.084-2.144-1.97-4.542-5.608-4.48a9.58465,9.58465,0,0,0-3.121.422c-.05-.057-.102-.114-.154-.171-2.249-2.4-6.407-4.097-6.231-7.323.064-1.173.472-4.261,7.989-8.007,6.158-3.069,11.088-2.224,11.94-.353,1.217,2.674-2.635,7.643-9.03,8.36a4.80285,4.80285,0,0,1-4.039-1.023c-.336-.37-.386-.387-.511-.317-.204.113-.075.44,0,.635a3.79374,3.79374,0,0,0,2.31,1.817,12.249,12.249,0,0,0,7.496-.741C34.424,20.229,37.45,16.059,36.561,12.574ZM20.076,30.638a5.12089,5.12089,0,0,1-.041,2.983c-.033.101-.07.2-.11.299-.04.098-.083.196-.129.292a5.5756,5.5756,0,0,1-.922,1.344c-1.16,1.265-2.78,1.743-3.474,1.34-.75-.435-.374-2.218.97-3.64a13.50512,13.50512,0,0,1,3.527-2.512l-.003-.006C19.954,30.705,20.015,30.672,20.076,30.638Z" transform="translate(-4.042 -3.98999)" style="fill:#fff"/></svg>