<svg xmlns="http://www.w3.org/2000/svg" viewBox="0 0 48 19.04652"><path d="M17.204,19.122l-4.907,2.715a.563.563,0,0,0-.297.492v5.433a.56421.56421,0,0,0,.297.492l4.908,2.717a.61815.61815,0,0,0,.593,0l4.907-2.717A.56628.56628,0,0,0,23,27.762V22.329a.56421.56421,0,0,0-.297-.492l-4.906-2.715a.61832.61832,0,0,0-.594,0m25.248,4.891-.818.452a.09271.09271,0,0,0-.049.082v.906a.09469.09469,0,0,0,.049.082l.818.453a.10246.10246,0,0,0,.099,0l.818-.453a.09469.09469,0,0,0,.049-.082v-.906a.09367.09367,0,0,0-.05-.082l-.818-.452a.09885.09885,0,0,0-.098,0" transform="translate(0 -12.00022)" style="fill:#388e3c"/><path d="M35.751,13.364l-2.389-1.333a.24313.24313,0,0,0-.361.212L33,20.295l-2.203-1.219a.61832.61832,0,0,0-.594,0h.001l-4.907,2.715a.56266.56266,0,0,0-.297.491v5.433a.56423.56423,0,0,0,.297.492l4.908,2.717a.61821.61821,0,0,0,.593,0l4.907-2.717A.5651.5651,0,0,0,36,27.715V13.788A.4873.4873,0,0,0,35.751,13.364ZM32.866,26.458l-2.23,1.235a.27943.27943,0,0,1-.269,0l-2.231-1.235A.2552.2552,0,0,1,28,26.234v-2.47a.2574.2574,0,0,1,.135-.224l2.231-1.234h-.001a.27892.27892,0,0,1,.135-.034.29054.29054,0,0,1,.135.034l2.23,1.234a.259.259,0,0,1,.135.225v2.47A.25686.25686,0,0,1,32.866,26.458Z" transform="translate(0 -12.00022)" style="fill:#37474f"/><path d="M17.204,19.122,12,27.762a.56423.56423,0,0,0,.297.492l4.908,2.717a.61815.61815,0,0,0,.593,0L23,22.329a.56421.56421,0,0,0-.297-.492l-4.906-2.715a.61825.61825,0,0,0-.594,0" transform="translate(0 -12.00022)" style="fill:#2e7d32"/><path d="M17.204,19.122l-4.907,2.715a.563.563,0,0,0-.297.492l5.204,8.642a.61815.61815,0,0,0,.593,0l4.907-2.717A.56524.56524,0,0,0,23,27.762l-5.203-8.64a.61832.61832,0,0,0-.594,0" transform="translate(0 -12.00022)" style="fill:#4caf50"/><path d="M47.703,21.791l-4.906-2.715a.61832.61832,0,0,0-.594,0h.001l-4.907,2.715a.57391.57391,0,0,0-.297.503v5.411a.57512.57512,0,0,0,.297.503l4.908,2.717a.61284.61284,0,0,0,.593,0l2.263-1.253a.3.3,0,0,0-.002-.526l-4.924-2.687A.26325.26325,0,0,1,40,26.231V23.765a.25239.25239,0,0,1,.13-.221l2.235-1.236h-.001a.279.279,0,0,1,.135-.034.29053.29053,0,0,1,.135.034l2.235,1.237a.25239.25239,0,0,1,.13.221v2.012a.24105.24105,0,0,0,.121.209.24563.24563,0,0,0,.242-.001l2.398-1.393a.4829.4829,0,0,0,.24-.417v-1.88A.57589.57589,0,0,0,47.703,21.791Zm-37,0L5.797,19.076a.61832.61832,0,0,0-.594,0h.001L.297,21.791A.57391.57391,0,0,0,0,22.294v7.465a.24108.24108,0,0,0,.121.209.24561.24561,0,0,0,.242-.001l2.398-1.393A.482.482,0,0,0,3,28.157V23.764a.25241.25241,0,0,1,.13-.221l2.235-1.236h0a.279.279,0,0,1,.135-.034.29065.29065,0,0,1,.135.034L7.87,23.544a.2524.2524,0,0,1,.13.221v4.393a.48077.48077,0,0,0,.24.417l2.398,1.393A.24015.24015,0,0,0,11,29.759V22.295A.57549.57549,0,0,0,10.703,21.791Z" transform="translate(0 -12.00022)" style="fill:#37474f"/></svg>