<svg xmlns="http://www.w3.org/2000/svg" viewBox="0 0 20 19.5"><path d="M113.54167,107.25h12.91666A3.53869,3.53869,0,0,1,130,110.79167v12.41666a3.53869,3.53869,0,0,1-3.54167,3.54167H113.54167A3.53869,3.53869,0,0,1,110,123.20833V110.79167A3.53869,3.53869,0,0,1,113.54167,107.25Z" transform="translate(-110 -107.25)" style="fill:#001e36"/><path d="M114.5,120.925V112.35c0-.05833.025-.09167.08333-.09167.14167,0,.275,0,.46667-.00833.2-.00833.40833-.00833.63333-.01667s.46667-.00833.725-.01666.50834-.00834.75834-.00834a4.89987,4.89987,0,0,1,1.71666.25834A2.97581,2.97581,0,0,1,120,113.15a2.65328,2.65328,0,0,1,.60833.95,3.18957,3.18957,0,0,1,.19167,1.08333,2.97926,2.97926,0,0,1-.5,1.775,2.855,2.855,0,0,1-1.34167,1.01667,5.40084,5.40084,0,0,1-1.875.28333c-.2,0-.33333,0-.41666-.00833s-.2-.00834-.35834-.00834v2.675a.10368.10368,0,0,1-.09166.11667H114.6C114.53333,121.03333,114.5,121,114.5,120.925Zm1.81667-7.05833v2.8c.11666.00833.225.01666.325.01666h.44166a3.1129,3.1129,0,0,0,.95834-.15,1.43312,1.43312,0,0,0,.68333-.44166,1.28773,1.28773,0,0,0,.25833-.85834,1.37155,1.37155,0,0,0-.19166-.74166,1.2084,1.2084,0,0,0-.58334-.475,2.44531,2.44531,0,0,0-.98333-.16667c-.21667,0-.40833,0-.56667.00833a1.9074,1.9074,0,0,0-.34166.00834Z" transform="translate(-110 -107.25)" style="fill:#31a8ff"/><path d="M126,116.15833a2.94949,2.94949,0,0,0-.8-.28333,4.39269,4.39269,0,0,0-.93333-.10833,1.67749,1.67749,0,0,0-.5.05833.42788.42788,0,0,0-.25834.16667.44169.44169,0,0,0-.06666.225.37063.37063,0,0,0,.08333.21666.94029.94029,0,0,0,.28333.225c.19167.1.39167.19167.59167.275a6.03585,6.03585,0,0,1,1.28333.60834,1.939,1.939,0,0,1,.65833.69166,1.799,1.799,0,0,1,.19167.85834,1.93884,1.93884,0,0,1-.325,1.10833,2.08827,2.08827,0,0,1-.93333.74167,3.81819,3.81819,0,0,1-1.50833.26666,5.7404,5.7404,0,0,1-1.13334-.10833,3.36151,3.36151,0,0,1-.85-.26667.16389.16389,0,0,1-.09167-.15833v-1.45a.09049.09049,0,0,1,.03334-.075.06345.06345,0,0,1,.075.00833,3.56728,3.56728,0,0,0,1.03333.40834,3.87965,3.87965,0,0,0,.98333.125,1.59056,1.59056,0,0,0,.69167-.11667.38713.38713,0,0,0,.225-.35.4415.4415,0,0,0-.2-.33333,3.53361,3.53361,0,0,0-.81667-.39167,5.09872,5.09872,0,0,1-1.18333-.6,2.15773,2.15773,0,0,1-.63333-.70833,1.78806,1.78806,0,0,1-.19167-.85,1.96,1.96,0,0,1,.28333-1.00833,2.05421,2.05421,0,0,1,.875-.76667,3.23155,3.23155,0,0,1,1.475-.29167,7.184,7.184,0,0,1,1.03333.075,2.93233,2.93233,0,0,1,.71667.19167.14642.14642,0,0,1,.08334.075.41843.41843,0,0,1,.01666.1V116.075a.10257.10257,0,0,1-.04166.08334A.222.222,0,0,1,126,116.15833Z" transform="translate(-110 -107.25)" style="fill:#31a8ff"/></svg>